<?xml version="1.0" encoding="UTF-8" standalone="no"?>
<!-- Created with Inkscape (http://www.inkscape.org/) -->

<svg
   width="256"
   height="256"
   viewBox="0 0 67.733332 67.733333"
   version="1.1"
   id="svg1"
   xml:space="preserve"
   sodipodi:docname="icon.svg"
   inkscape:version="1.3.1 (91b66b0783, 2023-11-16)"
   xmlns:inkscape="http://www.inkscape.org/namespaces/inkscape"
   xmlns:sodipodi="http://sodipodi.sourceforge.net/DTD/sodipodi-0.dtd"
   xmlns="http://www.w3.org/2000/svg"
   xmlns:svg="http://www.w3.org/2000/svg"
   xmlns:rdf="http://www.w3.org/1999/02/22-rdf-syntax-ns#"
   xmlns:cc="http://creativecommons.org/ns#"
   xmlns:dc="http://purl.org/dc/elements/1.1/"><title
     id="title4">Device Passwords</title><sodipodi:namedview
     id="namedview1"
     pagecolor="#ffffff"
     bordercolor="#000000"
     borderopacity="0.25"
     inkscape:showpageshadow="2"
     inkscape:pageopacity="0.0"
     inkscape:pagecheckerboard="true"
     inkscape:deskcolor="#d1d1d1"
     inkscape:document-units="mm"
     inkscape:zoom="1.4929298"
     inkscape:cx="106.502"
     inkscape:cy="265.58517"
     inkscape:window-width="1780"
     inkscape:window-height="1371"
     inkscape:window-x="1920"
     inkscape:window-y="32"
     inkscape:window-maximized="0"
     inkscape:current-layer="g4" /><defs
     id="defs1" /><g
     inkscape:label="Layer 1"
     inkscape:groupmode="layer"
     id="layer1"><g
       id="g1"
       transform="matrix(1.4579622,0,0,1.4579622,7.6320729,-0.42892714)"
       inkscape:label="g1"><path
         fill="#f4900c"
         d="M 13.028763,8.8348075 C 13.747175,11.715006 3.5594834,20.286817 0.75243643,13.30905 -0.87545434,9.2660731 -2.2969928,0.790341 -0.68111191,0.38746265 0.93476894,-0.01432397 12.311443,5.953517 13.028763,8.8348075 Z"
         id="path1"
         style="display:inline;stroke-width:1.09181" /><path
         fill="#a0041e"
         d="M 10.851692,9.4385787 C 11.89983,11.117784 8.8525845,14.41833 7.1744709,15.467561 5.4952649,16.516792 4.0093097,14.864881 2.3552155,10.648305 1.6324363,8.8042366 0.5362578,3.8026486 1.1509475,3.418331 1.7645455,3.0351052 9.8024607,7.759373 10.851692,9.4385787 Z"
         id="path2"
         style="display:inline;stroke-width:1.09181" /><path
         fill="#f4900c"
         d="M 22.992634,8.8348075 C 22.275313,11.716097 32.461914,20.286817 35.270052,13.30905 36.896851,9.2660731 38.31839,0.790341 36.702509,0.38746265 35.086628,-0.01432397 23.711045,5.953517 22.992634,8.8348075 Z"
         id="path3"
         style="display:inline;stroke-width:1.09181" /><path
         fill="#a0041e"
         d="m 25.170797,9.4385787 c -1.048139,1.6792053 1.999107,4.9797513 3.677221,6.0289823 1.678114,1.049231 3.164069,-0.60268 4.818163,-4.819256 0.72278,-1.8429767 1.818959,-6.8445647 1.205361,-7.2288822 -0.61469,-0.3843176 -8.651514,4.3399502 -9.700745,6.0191559 z"
         id="path4"
         style="stroke-width:1.09181" /><path
         fill="#f18f26"
         d="m 33.681467,27.515699 c 0,-0.495682 -0.20526,-1.191166 -0.444367,-1.841885 0.63871,0.03058 1.658462,0.208535 3.024318,0.892009 -0.0087,-0.58521 -0.128835,-1.074342 -0.298065,-1.520892 0.04477,0.02183 0.08188,0.03713 0.12665,0.06005 -1.204268,-3.613896 -3.612804,-6.023524 -3.612804,-6.023524 h 2.408536 C 32.340723,13.99034 29.464891,10.330589 26.069358,8.6448316 24.551741,7.6916807 22.042758,7.1839884 18.019432,7.1828966 h -0.0032 c -4.034243,0 -6.546502,0.5109677 -8.0630276,1.4695785 C 6.5642002,10.341506 3.6927364,13.997983 1.1520913,19.081456 H 3.561719 c 0,0 -2.4096277,2.408537 -3.6149874,6.023524 0.0327541,-0.01638 0.06005005,-0.02729 0.09171252,-0.04368 -0.21945414,0.42799 -0.33518616,0.924765 -0.30789084,1.503424 C 1.109511,25.8747 2.1510991,25.70001 2.8018186,25.671623 c -0.2063524,0.560099 -0.3744913,1.139851 -0.4214391,1.610422 -0.1342929,0.405061 -0.208536,0.88655 -0.1473946,1.466302 3.501439,-1.590769 5.1391561,-1.363672 7.0498256,-0.408337 1.3243675,3.955632 4.5921575,6.914441 8.7355825,6.914441 4.141241,0 7.365359,-3.05052 8.688635,-7.005062 1.591861,-1.364764 4.048436,-0.955334 7.005062,0.454194 0.07206,-0.452009 0.03931,-0.84397 -0.03931,-1.19335 z"
         id="path5"
         style="stroke-width:1.09181" /><g
         id="g4"
         transform="matrix(0.68588885,0,0,0.68588885,2.5828824,-7.491435)"><g
           id="g3"
           transform="matrix(0,1.1976996,-1.1976996,0,43.329296,44.487178)"><path
             fill="#31373d"
             d="m 11,36 c 0,0 -4,0 -4,-4 V 4 C 7,4 7,0 11,0 h 14 c 0,0 4,0 4,4 v 28 c 0,0 0,4 -4,4 z"
             id="path1-0" /><path
             fill="#55acee"
             d="M 9,5 H 27 V 31 H 9 Z"
             id="path2-63" /></g><path
           fill="#c1694f"
           d="m 6.2000838,66.046502 c 0.00347,4.299734 3.4920419,7.782351 7.7922722,7.779281 3.388134,-0.0027 6.260465,-2.173576 7.327891,-5.196493 l 3.911611,-0.0027 c 0.639866,-10e-4 1.190518,-0.35165 1.48979,-0.86739 l 1.970547,-0.0011 c -9.9e-5,0.479029 0.386342,0.864827 0.865364,0.863919 l 1.729782,-0.0019 c 0.478518,-4e-4 0.864814,-0.387346 0.864422,-0.865868 l 0.864643,7.74e-4 c 9e-4,0.478015 0.38784,0.86432 0.865367,0.863919 l 0.865631,-0.0012 c 0.478533,-4e-4 0.864811,-0.387319 0.864421,-0.865842 -1.3e-5,-0.01602 -0.0085,-0.02723 -0.0085,-0.04245 0.990352,-0.198105 1.737384,-1.07241 1.736992,-2.12186 -9.91e-4,-1.193809 -0.970338,-2.161534 -2.164156,-2.160546 l -13.86074,0.01068 c -1.072464,-3.022089 -3.948909,-5.187041 -7.33754,-5.183223 -4.2977364,0.0027 -7.780359,3.492042 -7.7772726,7.791268 z M 9.6581969,64.31335 c 0.9555651,-3.2e-4 1.7314461,0.774265 1.7317261,1.728827 8.01e-4,0.955042 -0.77328,1.730429 -1.7288293,1.73171 -0.9545486,0.0013 -1.7304289,-0.773277 -1.7317264,-1.728827 -3.017e-4,-0.955549 0.7737791,-1.730936 1.7288296,-1.73171 z"
           id="path1-5"
           style="fill:#eec022;fill-opacity:1;stroke:none;stroke-width:0.706405;stroke-opacity:1" /></g><path
         fill="#ffd983"
         d="m 32.476107,23.900712 c 0.0065,0 1.209727,0.0033 3.612804,1.204268 -1.363673,-3.099653 -8.215881,-4.443673 -10.842779,-3.593152 -1.278511,2.1334 -1.39861,5.462333 -3.693597,7.229976 -1.900844,1.562381 -5.145707,1.59186 -7.073846,0 -2.560298,-2.100646 -2.793945,-6.3467 -3.692507,-7.229976 -2.6279891,-0.852704 -9.4780137,0.495683 -10.8427778,3.593152 2.4030768,-1.202085 3.6073447,-1.204268 3.6128038,-1.204268 0,0.001 -1.204268,2.41072 -1.204268,3.614987 l 0.00109,-0.001 v 0.001 c 2.6181637,-1.717419 5.5857071,-2.479503 8.111066,-0.493499 1.818958,8.648238 13.421637,8.237718 15.103027,0 2.526451,-1.984913 5.491811,-1.225011 8.111066,0.493499 v -0.001 l 10e-4,0.001 c 0.0022,-1.204267 -1.202084,-3.614987 -1.203176,-3.614987 z"
         id="path6"
         style="display:inline;stroke-width:1.09181" /><path
         fill="#272b2b"
         d="m 10.374569,16.693665 c 0,0 0,-1.637717 1.637718,-1.637717 1.637717,0 1.637717,1.637717 1.637717,1.637717 v 1.637717 c 0,0 0,1.637717 -1.637717,1.637717 -1.637718,0 -1.637718,-1.637717 -1.637718,-1.637717 z m 12.009925,0 c 0,0 0,-1.637717 1.637718,-1.637717 1.637717,0 1.637717,1.637717 1.637717,1.637717 v 1.637717 c 0,0 0,1.637717 -1.637717,1.637717 -1.637718,0 -1.637718,-1.637717 -1.637718,-1.637717 z m -7.70928,11.800297 c -1.114739,0.227098 2.228387,4.332308 3.343127,4.332308 1.113648,0 4.456774,-4.10521 3.343126,-4.332308 -1.114739,-0.227096 -5.571513,-0.227096 -6.686253,0 z"
         id="path7"
         style="display:inline;stroke-width:1.09181" /></g></g><metadata
     id="metadata4"><rdf:RDF><cc:Work
         rdf:about=""><dc:title>Device Passwords</dc:title><dc:creator><cc:Agent><dc:title>Varbin the Fox</dc:title></cc:Agent></dc:creator><cc:license
           rdf:resource="http://creativecommons.org/licenses/by/4.0/" /><dc:source>Uses icons from the Twemoji set (https://github.com/twitter/twemoji), licensed as CC-BY 4.0 by Twitter, Inc and other contributers</dc:source><dc:date>2024-01-21</dc:date></cc:Work><cc:License
         rdf:about="http://creativecommons.org/licenses/by/4.0/"><cc:permits
           rdf:resource="http://creativecommons.org/ns#Reproduction" /><cc:permits
           rdf:resource="http://creativecommons.org/ns#Distribution" /><cc:requires
           rdf:resource="http://creativecommons.org/ns#Notice" /><cc:requires
           rdf:resource="http://creativecommons.org/ns#Attribution" /><cc:permits
           rdf:resource="http://creativecommons.org/ns#DerivativeWorks" /></cc:License></rdf:RDF></metadata></svg>
